<svg xmlns="http://www.w3.org/2000/svg" viewBox="0 0 32 32" width="32" height="32">
	<style>
		tspan { white-space:pre }
		.shp0 { fill: #ffffff } 
	</style>
	<path id="Layer" fill-rule="evenodd" class="shp0" d="M25 5C26.09 5 27 5.91 27 7L27 25C27 26.09 26.09 27 25 27L7 27C5.91 27 5 26.09 5 25L5 7C5 5.91 5.91 5 7 5L25 5ZM7 25L16.69 25L16.69 18.25L14.06 18.25L14.06 15.25L16.69 15.25L16.69 13C16.69 10.42 18.26 9.03 20.56 9.03C21.67 9.03 22.63 9.09 22.91 9.13L22.91 11.84L21.28 11.84C20.03 11.84 19.81 12.44 19.81 13.31L19.81 15.25L22.78 15.25L22.41 18.25L19.81 18.25L19.81 25L25 25L25 7L7 7L7 25Z" />
</svg>