<svg xmlns="http://www.w3.org/2000/svg" viewBox="0 0 1000 1000" width="1000" height="1000">
	<style>
		tspan { white-space:pre }
		.shp0 { fill: #ffffff } 
	</style>
	<g id="Layer">
		<path id="Layer" fill-rule="evenodd" class="shp0" d="M889.7 300.1C890.1 308.7 890.3 317.4 890.3 326.1C890.3 592.2 687.8 898.9 317.7 898.9C204.3 898.9 98.6 865.6 9.9 807.9C25.7 809.8 41.7 810.8 57.9 810.8C152.2 810.8 239 778.6 307.7 724.6C219.7 722.9 145.3 664.8 119.8 584.8C132.1 587.3 144.7 588.5 157.6 588.5C175.9 588.5 193.8 586 210.6 581.4C118.6 562.9 49.2 481.7 49.2 384.1C49.2 383.3 49.2 382.4 49.2 381.6C76.2 396.7 107.4 405.9 140.2 406.7C86.2 370.6 50.7 308.9 50.7 239.1C50.7 202.4 60.7 167.7 77.9 138C177 259.9 325.5 340.1 492.7 348.4C489.2 333.7 487.5 318.3 487.5 302.5C487.5 191.4 577.4 101.3 688.5 101.3C746 101.3 798.5 125.9 835.3 165.1C881.2 156.2 924.2 139.4 963 116.3C948 163.2 916 202.7 874.5 227.6C915.2 222.6 953.9 211.8 990 195.8C963 236.3 928.7 271.6 889.7 300.1ZM892.3 256.7C889.1 257.2 869.8 260.3 853 258.4C836.2 256.5 809.2 248 809.2 248C809.2 248 836.9 222 846.2 213.7C857.2 204 866.9 194.2 869 191.3C859.9 193.8 850.7 195.8 841.4 197.7L823.3 201.2L810.6 187.7C779.1 153.8 734.4 134.5 688.1 134.5C595.5 134.5 520.1 209.9 520.1 302.1C520.1 315.4 521.6 328.2 524.5 340.5L534.5 383.5L490.5 381.2C403.9 376.9 321 354.7 244.2 315C185.8 285.1 133.7 246.2 88.2 199.7C85.3 212.6 83.6 225.9 83.6 239.2C83.6 295.7 111.7 347.8 158.4 379.2C158.4 379.2 227.8 426.9 254.8 439.8C204.9 442.9 138.9 440 138.9 440C121.3 438.9 105.5 437.3 89.3 433.1C107 491.1 155.2 536.8 216.6 549L344.8 571.6L218.7 613.6C204.2 617.6 189.3 620.3 174.1 621.3C204.4 663.9 253.4 690.7 307.6 691.7L400.8 693.4L327.5 750.9C289.7 780.6 247.8 803.6 202.7 819.4C183 826.2 162.9 831.9 142.3 835.8C198.6 855.3 257.8 865.3 317.8 865.3C401.3 865.3 479.2 848.9 549.4 816.3C613.5 786.6 670 744.2 717.8 690C762.4 639.4 797.3 580.8 821.6 516C844.6 454.3 856.9 388.7 856.9 326C856.9 317.7 856.7 309.4 856.3 301.5L855.5 283.6L870 273C876.2 268.7 886.6 261.4 892.3 256.7Z" />
	</g>
</svg>